<?xml version="1.0" encoding="UTF-8" standalone="no"?>
<svg
   width="2500"
   height="2500"
   viewBox="0 0 2500 2500"
   version="1.1"
   id="svg12"
   sodipodi:docname="paradox.svg"
   inkscape:version="1.1 (c68e22c387, 2021-05-23)"
   xmlns:inkscape="http://www.inkscape.org/namespaces/inkscape"
   xmlns:sodipodi="http://sodipodi.sourceforge.net/DTD/sodipodi-0.dtd"
   xmlns="http://www.w3.org/2000/svg"
   xmlns:svg="http://www.w3.org/2000/svg">
  <defs
     id="defs16" />
  <sodipodi:namedview
     id="namedview14"
     pagecolor="#ffffff"
     bordercolor="#666666"
     borderopacity="1.0"
     inkscape:pageshadow="2"
     inkscape:pageopacity="0.0"
     inkscape:pagecheckerboard="0"
     showgrid="false"
     inkscape:zoom="0.3036"
     inkscape:cx="1250"
     inkscape:cy="1250"
     inkscape:window-width="1920"
     inkscape:window-height="1017"
     inkscape:window-x="-8"
     inkscape:window-y="-8"
     inkscape:window-maximized="1"
     inkscape:current-layer="svg12"
     scale-x="1" />
  <path
     fill="rgba(255,255,255,0)"
     d="M 0,0 H 192.756 V 192.756 H 0 Z"
     id="path2"
     style="clip-rule:evenodd;fill:none;fill-rule:evenodd;stroke:none" />
  <g
     id="g840"
     transform="matrix(12.971785,0,0,12.971785,-0.20118062,-0.20766652)">
    <path
       fill="#cc2229"
       d="M 42.676,104.195 34.218,88.691 25.607,104.195 Z"
       id="path4"
       style="clip-rule:evenodd;fill-rule:evenodd" />
    <path
       fill="#33a457"
       d="M 100.143,104.195 91.685,88.691 83.073,104.195 Z"
       id="path6"
       style="clip-rule:evenodd;fill-rule:evenodd" />
    <path
       d="m 147.209,96.307 0.006,0.287 0.018,0.284 0.029,0.28 0.041,0.276 0.053,0.271 0.064,0.269 0.074,0.264 0.088,0.26 0.1,0.252 0.107,0.244 0.119,0.234 0.129,0.227 0.139,0.217 0.148,0.209 0.158,0.199 0.17,0.19 0.188,0.193 0.195,0.182 0.201,0.169 0.207,0.159 0.217,0.147 0.223,0.137 0.229,0.126 0.238,0.114 0.24,0.103 0.242,0.088 0.242,0.075 0.244,0.061 0.246,0.047 0.246,0.034 0.246,0.021 0.25,0.007 0.275,-0.007 0.268,-0.02 0.264,-0.031 0.258,-0.045 0.252,-0.057 0.244,-0.07 0.24,-0.082 0.232,-0.094 0.229,-0.108 0.223,-0.12 0.217,-0.133 0.211,-0.145 0.205,-0.158 0.201,-0.171 0.195,-0.185 0.191,-0.196 0.18,-0.207 0.17,-0.214 0.158,-0.219 0.145,-0.225 0.135,-0.231 0.121,-0.236 0.111,-0.243 0.1,-0.249 0.086,-0.255 0.076,-0.262 0.064,-0.269 0.053,-0.274 0.041,-0.281 0.029,-0.287 0.018,-0.295 0.006,-0.301 -0.006,-0.255 -0.018,-0.251 -0.027,-0.249 -0.039,-0.244 -0.051,-0.242 -0.061,-0.239 -0.074,-0.235 -0.082,-0.232 -0.096,-0.229 -0.104,-0.226 -0.117,-0.221 -0.125,-0.216 -0.135,-0.211 -0.146,-0.207 -0.158,-0.203 -0.166,-0.197 -0.207,-0.219 -0.211,-0.205 -0.213,-0.189 -0.217,-0.174 -0.219,-0.159 -0.223,-0.144 -0.227,-0.129 -0.229,-0.114 -0.232,-0.101 -0.24,-0.087 -0.246,-0.074 -0.252,-0.06 -0.26,-0.047 -0.268,-0.034 -0.271,-0.021 -0.279,-0.006 -0.252,0.005 -0.248,0.019 -0.244,0.031 -0.242,0.043 -0.238,0.055 -0.234,0.068 -0.232,0.079 -0.229,0.092 -0.225,0.104 -0.219,0.115 -0.211,0.126 -0.205,0.137 -0.197,0.148 -0.191,0.16 -0.186,0.17 -0.18,0.182 -0.18,0.2 -0.17,0.207 -0.158,0.215 -0.148,0.223 -0.141,0.231 -0.127,0.239 -0.119,0.247 -0.107,0.255 -0.098,0.259 -0.084,0.261 -0.07,0.261 -0.059,0.263 -0.047,0.264 -0.031,0.266 -0.02,0.267 z m -2.662,-0.022 0.002,-0.206 0.008,-0.205 0.012,-0.204 0.018,-0.202 0.021,-0.2 0.025,-0.2 0.031,-0.199 0.035,-0.196 0.041,-0.195 0.045,-0.195 0.051,-0.193 0.055,-0.191 0.059,-0.19 0.064,-0.189 0.068,-0.188 0.074,-0.186 0.078,-0.185 0.082,-0.182 0.086,-0.181 0.092,-0.177 0.096,-0.176 0.102,-0.173 0.104,-0.17 0.109,-0.167 0.113,-0.166 0.119,-0.163 0.121,-0.162 0.127,-0.158 0.131,-0.157 0.137,-0.154 0.139,-0.152 0.145,-0.149 0.141,-0.138 0.141,-0.134 0.145,-0.13 0.145,-0.125 0.148,-0.121 0.148,-0.117 0.15,-0.113 0.154,-0.108 0.154,-0.104 0.158,-0.1 0.16,-0.096 0.16,-0.092 0.164,-0.087 0.164,-0.083 0.168,-0.078 0.17,-0.074 0.17,-0.071 0.172,-0.066 0.174,-0.062 0.176,-0.057 0.178,-0.052 0.18,-0.047 0.18,-0.043 0.182,-0.038 0.181,-0.03 0.186,-0.029 0.186,-0.025 0.189,-0.02 0.188,-0.016 0.191,-0.011 0.193,-0.007 0.193,-0.002 0.199,0.002 0.197,0.007 0.193,0.011 0.193,0.016 0.191,0.02 0.191,0.025 0.188,0.029 0.188,0.034 0.184,0.038 0.184,0.043 0.182,0.048 0.18,0.052 0.178,0.057 0.176,0.061 0.176,0.066 0.172,0.071 0.17,0.074 0.168,0.079 0.168,0.083 0.164,0.088 0.164,0.092 0.16,0.097 0.16,0.101 0.156,0.106 0.156,0.109 0.152,0.114 0.152,0.119 0.15,0.124 0.146,0.127 0.146,0.132 0.145,0.136 0.141,0.141 0.143,0.148 0.139,0.15 0.135,0.152 0.129,0.155 0.125,0.157 0.121,0.159 0.117,0.162 0.111,0.165 0.107,0.166 0.102,0.168 0.1,0.17 0.094,0.173 0.088,0.175 0.084,0.178 0.082,0.18 0.074,0.182 0.072,0.184 0.064,0.185 0.062,0.187 0.057,0.189 0.053,0.19 0.049,0.192 0.043,0.194 0.039,0.196 0.035,0.198 0.029,0.199 0.025,0.201 0.021,0.203 0.016,0.204 0.012,0.206 0.008,0.208 0.002,0.21 -0.002,0.206 -0.006,0.204 -0.01,0.203 -0.014,0.201 -0.018,0.199 -0.021,0.197 -0.027,0.195 -0.029,0.193 -0.033,0.191 -0.037,0.189 -0.041,0.188 -0.045,0.186 -0.051,0.184 -0.053,0.182 -0.057,0.18 -0.061,0.178 -0.064,0.175 -0.068,0.174 -0.074,0.171 -0.076,0.169 -0.08,0.167 -0.084,0.164 -0.09,0.162 -0.092,0.16 -0.096,0.158 -0.102,0.155 -0.104,0.152 -0.107,0.151 -0.113,0.148 -0.115,0.146 -0.119,0.145 -0.125,0.142 -0.148,0.162 -0.15,0.157 -0.154,0.152 -0.154,0.146 -0.158,0.142 -0.16,0.137 -0.162,0.132 -0.164,0.126 -0.166,0.122 -0.17,0.116 -0.17,0.111 -0.174,0.107 -0.174,0.102 -0.178,0.096 -0.18,0.092 -0.182,0.086 -0.186,0.082 -0.186,0.075 -0.188,0.071 -0.189,0.065 -0.193,0.06 -0.193,0.056 -0.195,0.05 -0.197,0.045 -0.199,0.039 -0.201,0.035 -0.201,0.028 -0.205,0.023 -0.207,0.019 -0.209,0.014 -0.209,0.008 -0.211,0.003 -0.215,-0.003 -0.211,-0.009 -0.209,-0.013 -0.209,-0.019 -0.205,-0.024 -0.203,-0.029 -0.201,-0.035 -0.199,-0.04 -0.197,-0.045 -0.195,-0.051 -0.193,-0.057 -0.191,-0.062 -0.189,-0.066 -0.186,-0.072 -0.186,-0.077 -0.182,-0.082 -0.182,-0.089 -0.18,-0.093 -0.176,-0.098 -0.174,-0.104 -0.172,-0.108 -0.168,-0.113 -0.166,-0.119 -0.164,-0.123 -0.162,-0.129 -0.16,-0.134 -0.156,-0.14 -0.154,-0.145 -0.152,-0.149 -0.148,-0.155 -0.146,-0.159 -0.145,-0.163 -0.119,-0.141 -0.117,-0.143 -0.113,-0.146 -0.109,-0.147 -0.105,-0.15 -0.102,-0.152 -0.098,-0.155 -0.094,-0.157 -0.092,-0.16 -0.088,-0.162 -0.082,-0.165 -0.08,-0.167 -0.076,-0.17 -0.07,-0.172 -0.068,-0.174 -0.064,-0.176 -0.061,-0.178 -0.057,-0.18 -0.055,-0.182 -0.049,-0.182 -0.045,-0.186 -0.041,-0.186 -0.037,-0.188 -0.033,-0.188 -0.031,-0.19 -0.025,-0.192 -0.021,-0.193 -0.018,-0.195 -0.014,-0.196 -0.01,-0.198 -0.006,-0.199 z m 38.623,2.279 -3.693,5.689 h -3.084 l 5.246,-7.951 -5.115,-7.8 h 3.102 l 3.545,5.731 3.496,-5.731 h 3.15 l -5.119,7.8 5.225,7.951 h -3.105 z m -63.963,5.69 h -3.453 V 88.502 h 4.084 c 4.588,0.085 7.621,2.884 7.896,7.496 0.102,5.2 -3.43,8.178 -8.287,8.255 z m -0.715,-2.657 h 1.258 c 3.404,-0.064 5.383,-2.059 5.316,-5.462 -0.201,-3.469 -2.504,-4.913 -5.725,-4.967 h -0.85 v 10.429 z M 5.59,104.254 H 2.834 V 88.502 h 3.771 c 3.31,0.02 6.05,1.039 5.966,4.97 -0.042,3.173 -2.584,4.565 -5.555,4.614 H 5.59 Z m 0,-8.851 H 6.855 C 8.535,95.383 9.788,94.964 9.864,93.325 9.787,91.524 8.6,91.119 6.931,91.1 H 5.59 Z m 55.406,0.673 h 0.749 c 1.917,-0.023 3.823,0.073 3.936,-2.425 -0.097,-2.353 -1.591,-2.448 -3.437,-2.468 h -1.247 v 4.893 z m -2.646,8.178 V 88.502 h 4.408 c 3.12,0.043 5.377,1.346 5.577,4.866 0.048,2.619 -1.584,4.592 -4.087,4.997 l 4.292,5.889 h -3.379 l -4.165,-6.432 v 6.432 z"
       id="path8"
       style="clip-rule:evenodd;fill-rule:evenodd" />
  </g>
</svg>
