<?xml version="1.0" encoding="UTF-8" standalone="no"?>
<svg
   width="2500"
   height="2500"
   viewBox="0 0 192.756 192.756"
   version="1.1"
   id="svg10"
   sodipodi:docname="dsc-1.svg"
   inkscape:version="1.1 (c68e22c387, 2021-05-23)"
   xmlns:inkscape="http://www.inkscape.org/namespaces/inkscape"
   xmlns:sodipodi="http://sodipodi.sourceforge.net/DTD/sodipodi-0.dtd"
   xmlns="http://www.w3.org/2000/svg"
   xmlns:svg="http://www.w3.org/2000/svg">
  <defs
     id="defs14" />
  <sodipodi:namedview
     id="namedview12"
     pagecolor="#ffffff"
     bordercolor="#666666"
     borderopacity="1.0"
     inkscape:pageshadow="2"
     inkscape:pageopacity="0.0"
     inkscape:pagecheckerboard="0"
     showgrid="false"
     inkscape:zoom="0.3036"
     inkscape:cx="1250"
     inkscape:cy="1251.6469"
     inkscape:window-width="1920"
     inkscape:window-height="1017"
     inkscape:window-x="-8"
     inkscape:window-y="-8"
     inkscape:window-maximized="1"
     inkscape:current-layer="svg10" />
  <path
     fill="rgba(255,255,255,0)"
     d="M 0,0 H 192.756 V 192.756 H 0 Z"
     id="path2"
     style="clip-rule:evenodd;fill-rule:evenodd" />
  <g
     id="g836">
    <path
       d="m 112.145,87.053 c 1.83,-10.066 13.727,-22.511 29.832,-22.145 4.941,0.183 10.797,2.013 14.275,4.758 0.182,0.183 0.365,0.183 0.549,0.183 0.549,0 0.914,-0.366 0.914,-0.732 v -3.661 h 10.25 c 1.279,0 2.379,1.099 2.379,2.196 v 19.583 h -11.348 c -2.379,0 -4.025,-0.732 -4.758,-1.83 -2.928,-3.477 -7.32,-5.124 -12.08,-5.49 -7.686,-0.366 -13.725,7.32 -13.176,7.32 z m -0.916,6.589 c -0.365,0 -0.182,-1.281 0.184,-3.294 h 16.105 c -0.732,1.647 -0.732,2.013 -0.914,3.294 z m 0.183,6.405 c -0.184,-1.098 -0.732,-3.293 -0.365,-3.293 h 15.557 c 0,0 0.182,3.293 0.914,3.293 z m 17.57,3.295 c 1.83,3.844 8.783,7.504 13.176,7.32 5.49,-0.365 9.518,-2.195 12.445,-5.855 0.367,-0.916 2.379,-1.83 4.576,-1.83 h 13.176 c -2.744,12.627 -15.922,22.693 -30.197,22.693 -13.543,0 -27.086,-9.699 -30.014,-22.328 z m -73.023,2.562 c -1.647,2.195 -5.49,4.758 -9.883,4.941 H 36.011 l 0.183,-7.504 H 20.272 v 8.785 l -2.929,-0.184 c -1.098,0 -2.928,1.646 -2.745,3.111 v 9.334 h 33.857 c 8.968,-0.367 15.739,-5.855 19.034,-10.066 3.111,-3.844 4.026,-5.674 5.308,-10.98 H 57.423 c -0.182,0.001 -0.365,1.282 -1.464,2.563 z m 17.57,-5.857 c 0.549,-1.281 0.549,-2.014 0.366,-3.293 H 58.521 c 0.366,0 -0.732,3.293 -0.183,3.293 z m 0.366,-6.405 c 0,-0.915 0,-1.83 -0.366,-3.294 h -15.19 c 0,0 0.366,1.098 0.366,3.294 z M 72.98,87.053 C 71.881,82.661 70.235,79.366 67.489,76.073 64.195,71.864 57.606,66.373 48.09,66.007 H 14.599 v 10.432 c 0.183,1.098 1.098,1.83 2.013,1.83 0,0 3.66,0.183 3.843,0.183 v 8.602 l 15.556,0.183 V 79.55 h 9.883 c 4.575,0.183 8.418,2.745 10.065,5.125 0.366,0.366 1.83,2.562 1.464,2.562 z M 36.011,100.047 V 96.754 H 20.272 v 3.293 z m 0,-6.405 V 90.348 H 20.272 v 3.294 z"
       fill="#cf4049"
       id="path4"
       style="clip-rule:evenodd;fill-rule:evenodd" />
    <path
       d="m 72.248,87.236 c 0,0 -1.281,-3.661 -1.281,-5.125 0,-9.517 8.236,-17.203 18.485,-17.203 2.379,0 5.49,0.732 7.32,1.464 0.365,0.184 0.916,0.549 1.465,1.099 0.182,0.366 0.365,0 0.365,-2.014 h 10.066 c 1.463,0 2.561,1.281 2.561,2.562 v 15.19 H 99.883 c -2.379,0 -2.562,-1.281 -3.294,-2.562 -0.549,-2.013 -2.745,-3.294 -5.124,-3.294 -2.929,0 -5.308,2.013 -5.308,4.576 0,1.098 0.549,1.83 1.098,2.745 0.549,1.098 4.941,2.562 4.575,2.562 z m 3.66,6.406 c -0.731,0 -2.745,-3.294 -2.379,-3.294 l 26.903,-0.183 c 1.465,0 7.32,3.478 5.857,3.478 H 75.908 Z m 9.883,6.405 c -1.464,0 -7.32,-3.293 -6.588,-3.293 h 30.196 c 0.551,0 2.746,3.293 1.83,3.293 z m 27.086,3.295 c 0.182,0 0.549,2.928 0.549,4.209 0.549,9.883 -8.602,18.119 -19.034,18.119 -2.379,0 -5.49,-0.732 -7.32,-1.648 -0.366,-0.182 -1.647,-1.098 -2.745,-1.83 -0.366,-0.365 -0.366,-0.182 -0.366,1.83 H 73.712 c -1.281,0 -2.562,-1.279 -2.562,-2.562 v -15.922 c -0.915,0 10.065,-0.182 11.163,0.184 2.014,0.367 2.929,2.014 3.661,2.928 2.379,4.393 4.575,4.393 6.406,4.576 2.928,0.184 5.308,-2.195 5.308,-4.758 0.182,-2.746 -5.674,-5.125 -4.942,-5.125 h 20.131 z m 66.801,-29.099 c 2.561,0 4.574,-1.83 4.574,-4.393 0,-2.563 -2.014,-4.393 -4.574,-4.393 -2.562,0 -4.76,1.83 -4.76,4.393 0,2.563 2.197,4.393 4.76,4.393 z m -3.844,-4.393 c 0,-2.013 1.646,-3.66 3.844,-3.66 2.012,0 3.66,1.647 3.66,3.66 0,2.013 -1.648,3.66 -3.66,3.66 -2.198,0 -3.844,-1.647 -3.844,-3.66 z m 2.744,0.366 h 1.1 l 1.279,2.196 h 0.916 l -1.465,-2.196 c 0.732,-0.183 1.281,-0.549 1.281,-1.464 0,-0.915 -0.549,-1.464 -1.83,-1.464 h -2.014 v 5.125 h 0.732 v -2.197 z m 0,-0.732 V 68.02 h 1.1 c 0.73,0 1.279,0 1.279,0.732 0,0.732 -0.73,0.732 -1.279,0.732 z"
       fill="#cf4049"
       id="path6"
       style="clip-rule:evenodd;fill-rule:evenodd" />
  </g>
  <g
     id="g828">
    <path
       d="m 112.145,87.053 c 1.83,-10.066 13.727,-22.511 29.832,-22.145 4.941,0.183 10.797,2.013 14.275,4.758 0.182,0.183 0.365,0.183 0.549,0.183 0.549,0 0.914,-0.366 0.914,-0.732 v -3.661 h 10.25 c 1.279,0 2.379,1.099 2.379,2.196 v 19.583 h -11.348 c -2.379,0 -4.025,-0.732 -4.758,-1.83 -2.928,-3.477 -7.32,-5.124 -12.08,-5.49 -7.686,-0.366 -13.725,7.32 -13.176,7.32 z m -0.916,6.589 c -0.365,0 -0.182,-1.281 0.184,-3.294 h 16.105 c -0.732,1.647 -0.732,2.013 -0.914,3.294 z m 0.183,6.405 c -0.184,-1.098 -0.732,-3.293 -0.365,-3.293 h 15.557 c 0,0 0.182,3.293 0.914,3.293 z m 17.57,3.295 c 1.83,3.844 8.783,7.504 13.176,7.32 5.49,-0.365 9.518,-2.195 12.445,-5.855 0.367,-0.916 2.379,-1.83 4.576,-1.83 h 13.176 c -2.744,12.627 -15.922,22.693 -30.197,22.693 -13.543,0 -27.086,-9.699 -30.014,-22.328 z m -73.023,2.562 c -1.647,2.195 -5.49,4.758 -9.883,4.941 H 36.011 l 0.183,-7.504 H 20.272 v 8.785 l -2.929,-0.184 c -1.098,0 -2.928,1.646 -2.745,3.111 v 9.334 h 33.857 c 8.968,-0.367 15.739,-5.855 19.034,-10.066 3.111,-3.844 4.026,-5.674 5.308,-10.98 H 57.423 c -0.182,0.001 -0.365,1.282 -1.464,2.563 z m 17.57,-5.857 c 0.549,-1.281 0.549,-2.014 0.366,-3.293 H 58.521 c 0.366,0 -0.732,3.293 -0.183,3.293 z m 0.366,-6.405 c 0,-0.915 0,-1.83 -0.366,-3.294 h -15.19 c 0,0 0.366,1.098 0.366,3.294 z M 72.98,87.053 C 71.881,82.661 70.235,79.366 67.489,76.073 64.195,71.864 57.606,66.373 48.09,66.007 H 14.599 v 10.432 c 0.183,1.098 1.098,1.83 2.013,1.83 0,0 3.66,0.183 3.843,0.183 v 8.602 l 15.556,0.183 V 79.55 h 9.883 c 4.575,0.183 8.418,2.745 10.065,5.125 0.366,0.366 1.83,2.562 1.464,2.562 z M 36.011,100.047 V 96.754 H 20.272 v 3.293 z m 0,-6.405 V 90.348 H 20.272 v 3.294 z"
       fill="#cf4049"
       id="path824"
       style="clip-rule:evenodd;fill-rule:evenodd" />
    <path
       d="m 72.248,87.236 c 0,0 -1.281,-3.661 -1.281,-5.125 0,-9.517 8.236,-17.203 18.485,-17.203 2.379,0 5.49,0.732 7.32,1.464 0.365,0.184 0.916,0.549 1.465,1.099 0.182,0.366 0.365,0 0.365,-2.014 h 10.066 c 1.463,0 2.561,1.281 2.561,2.562 v 15.19 H 99.883 c -2.379,0 -2.562,-1.281 -3.294,-2.562 -0.549,-2.013 -2.745,-3.294 -5.124,-3.294 -2.929,0 -5.308,2.013 -5.308,4.576 0,1.098 0.549,1.83 1.098,2.745 0.549,1.098 4.941,2.562 4.575,2.562 z m 3.66,6.406 c -0.731,0 -2.745,-3.294 -2.379,-3.294 l 26.903,-0.183 c 1.465,0 7.32,3.478 5.857,3.478 H 75.908 Z m 9.883,6.405 c -1.464,0 -7.32,-3.293 -6.588,-3.293 h 30.196 c 0.551,0 2.746,3.293 1.83,3.293 z m 27.086,3.295 c 0.182,0 0.549,2.928 0.549,4.209 0.549,9.883 -8.602,18.119 -19.034,18.119 -2.379,0 -5.49,-0.732 -7.32,-1.648 -0.366,-0.182 -1.647,-1.098 -2.745,-1.83 -0.366,-0.365 -0.366,-0.182 -0.366,1.83 H 73.712 c -1.281,0 -2.562,-1.279 -2.562,-2.562 v -15.922 c -0.915,0 10.065,-0.182 11.163,0.184 2.014,0.367 2.929,2.014 3.661,2.928 2.379,4.393 4.575,4.393 6.406,4.576 2.928,0.184 5.308,-2.195 5.308,-4.758 0.182,-2.746 -5.674,-5.125 -4.942,-5.125 h 20.131 z m 66.801,-29.099 c 2.561,0 4.574,-1.83 4.574,-4.393 0,-2.563 -2.014,-4.393 -4.574,-4.393 -2.562,0 -4.76,1.83 -4.76,4.393 0,2.563 2.197,4.393 4.76,4.393 z m -3.844,-4.393 c 0,-2.013 1.646,-3.66 3.844,-3.66 2.012,0 3.66,1.647 3.66,3.66 0,2.013 -1.648,3.66 -3.66,3.66 -2.198,0 -3.844,-1.647 -3.844,-3.66 z m 2.744,0.366 h 1.1 l 1.279,2.196 h 0.916 l -1.465,-2.196 c 0.732,-0.183 1.281,-0.549 1.281,-1.464 0,-0.915 -0.549,-1.464 -1.83,-1.464 h -2.014 v 5.125 h 0.732 v -2.197 z m 0,-0.732 V 68.02 h 1.1 c 0.73,0 1.279,0 1.279,0.732 0,0.732 -0.73,0.732 -1.279,0.732 z"
       fill="#cf4049"
       id="path826"
       style="clip-rule:evenodd;fill-rule:evenodd" />
  </g>
</svg>
